<?xml version="1.0" encoding="UTF-8"?>
<svg id="Capa_2" data-name="Capa 2" xmlns="http://www.w3.org/2000/svg" viewBox="0 0 74.12 76.92">
  <defs>
    <style>
      .cls-1 {
        fill: #8a82c7;
      }
    </style>
  </defs>
  <g id="Capa_1-2" data-name="Capa 1">
    <g>
      <g>
        <path class="cls-1" d="m6.99,8.86c-3.86,0-6.99,3.13-6.99,6.99v54.08c0,3.86,3.13,6.99,6.99,6.99h60.14c3.86,0,6.99-3.13,6.99-6.99V15.85c0-3.86-3.13-6.99-6.99-6.99h-2.45v4.43c0,2.96-2.41,5.36-5.36,5.36s-5.36-2.41-5.36-5.36v-4.43H20.16v4.43c0,2.96-2.41,5.36-5.36,5.36s-5.36-2.41-5.36-5.36v-4.43h-2.45Zm4.43,19.58h51.28c1.55,0,2.8,1.13,2.8,2.53v35.03c0,1.4-1.25,2.53-2.8,2.53H11.42c-1.55,0-2.8-1.13-2.8-2.53V30.97c0-1.4,1.25-2.53,2.8-2.53Z"/>
        <path class="cls-1" d="m12.24,2.56v10.72c0,1.41,1.15,2.57,2.56,2.57s2.56-1.15,2.56-2.57V2.56c0-1.42-1.15-2.56-2.56-2.56s-2.56,1.15-2.56,2.56Z"/>
        <path class="cls-1" d="m56.76,2.56v10.72c0,1.41,1.15,2.57,2.56,2.57s2.56-1.15,2.56-2.57V2.56c0-1.42-1.15-2.56-2.56-2.56s-2.56,1.15-2.56,2.56Z"/>
      </g>
      <rect class="cls-1" x="13.53" y="32.81" width="13.57" height="13.88"/>
      <rect class="cls-1" x="30.61" y="32.81" width="13.57" height="13.88"/>
      <rect class="cls-1" x="13.53" y="49.87" width="13.57" height="13.88"/>
      <rect class="cls-1" x="30.61" y="49.87" width="13.57" height="13.88"/>
      <rect class="cls-1" x="48.32" y="32.81" width="13.57" height="13.88"/>
      <rect class="cls-1" x="48.32" y="49.87" width="13.57" height="13.88"/>
    </g>
  </g>
</svg>