<?xml version="1.0" encoding="UTF-8"?>
<svg id="Capa_2" data-name="Capa 2" xmlns="http://www.w3.org/2000/svg" viewBox="0 0 91.62 57.77">
  <defs>
    <style>
      .cls-1 {
        fill: #8a82c7;
      }
    </style>
  </defs>
  <g id="Capa_1-2" data-name="Capa 1">
    <g>
      <g>
        <path class="cls-1" d="m20.1,4.67c-8.19,0-14.86,6.67-14.86,14.86s6.67,14.86,14.86,14.86c5.33,0,10.01-2.83,12.63-7.06-2.05-3.34-4.72-9.38-1.58-17.7-2.72-3.03-6.66-4.96-11.05-4.96Z"/>
        <path class="cls-1" d="m30.28,32.32c-.18.14-.41.31-.65.48-1.46,3.86-5.18,6.62-9.55,6.62s-8.15-2.8-9.58-6.71c-.46-.33-.82-.61-1.02-.78-.07-.07-.15-.13-.23-.2l-.13.11C-.14,39.85,0,53.85,0,54.44v.5h23.55c.36-5.43,1.96-15.08,8.45-22.22-.47-.43-.87-.73-1.12-.91-.13.12-.26.23-.39.35-.07.05-.13.11-.2.16Z"/>
      </g>
      <path class="cls-1" d="m60.8,31.3c-.15.13-.3.27-.45.4-.07.06-.15.12-.22.19-1.45,1.16-4.8,3.33-9.2,4.03-.44.06-.87.13-1.32.16-.38.02-.75.04-1.14.04-1.39,0-2.73-.16-4.03-.46-4.11-1.05-7.24-3.47-8.13-4.21-.08-.08-.18-.14-.26-.22l-.15.13c-10.59,9.16-10.45,25.19-10.43,25.87v.57h45.34l-.02-.6c-.75-18.52-8.16-24.64-9.98-25.87Z"/>
      <path class="cls-1" d="m31.53,17.03c0,9.38,7.64,17.02,17.03,17.02h0c4.54,0,8.81-1.78,12.03-4.99,3.22-3.22,4.99-7.5,4.99-12.04,0-9.39-7.64-17.02-17.03-17.02-9.39,0-17.03,7.64-17.03,17.03Z"/>
      <path class="cls-1" d="m72.5,54.08h19.1s0-.44,0-.44c0-.53-.18-12.42-8.49-19.61l-.11-.1c-.27.25-.55.49-.83.72l-5.91,11.51-1.05-6.75,1.68-2.72c-1.07.26-2.19.4-3.34.4-.3,0-.6-.01-.89-.03-.54-.03-1.07-.1-1.6-.19-.2-.04-.41-.08-.61-.12l1.66,2.67-1.1,6.43c.89,3.14,1.3,6.17,1.48,8.25Z"/>
      <path class="cls-1" d="m74.14,35.25c7.36,0,13.36-5.99,13.36-13.35,0-7.36-5.99-13.36-13.35-13.36-3,0-5.77.99-8,2.67.69,1.91,1.07,3.97,1.07,6.12,0,4.47-1.65,8.55-4.36,11.7,2.37,3.74,6.54,6.22,11.28,6.22Z"/>
    </g>
  </g>
</svg>