<?xml version="1.0" encoding="UTF-8"?>
<svg id="Capa_2" data-name="Capa 2" xmlns="http://www.w3.org/2000/svg" viewBox="0 0 56.05 56.04">
  <defs>
    <style>
      .cls-1 {
        fill: #fff;
      }

      .cls-2 {
        fill: #a19ebb;
      }
    </style>
  </defs>
  <g id="Capa_1-2" data-name="Capa 1">
    <g>
      <path class="cls-2" d="m56.05,27.99c0,14.68-11.28,26.75-25.6,27.9-.79.14-1.59.14-2.38.14-2.1,0-4.13-.21-6.07-.64C9.4,52.56,0,41.35,0,27.99,0,12.51,12.59,0,28.06,0s27.98,12.51,27.98,27.99Z"/>
      <path class="cls-1" d="m31.24,22.13c.43-.51,1.3-.87,2.53-.87,1.15,0,2.53.16,3.83.52l1.09-5.88c-2.24-.78-4.55-1.01-6.94-1.01s-4.27.37-5.79,1.23c-1.52.86-2.53,1.82-3.11,3.2-.58,1.21-.87,3.32-.87,5.92v2.31h-4.64v6.73h4.64v21.12c1.95.43,3.98.64,6.07.64.79,0,1.59,0,2.38-.14v-21.62h6.15v-6.73h-6.15v-2.17c0-1.66.22-2.68.8-3.25Z"/>
    </g>
  </g>
</svg>