<?xml version="1.0" encoding="UTF-8"?>
<svg id="Capa_2" data-name="Capa 2" xmlns="http://www.w3.org/2000/svg" viewBox="0 0 56.05 56.07">
  <defs>
    <style>
      .cls-1 {
        fill: #fff;
        fill-rule: evenodd;
      }

      .cls-2 {
        fill: #a19ebb;
      }
    </style>
  </defs>
  <g id="Capa_1-2" data-name="Capa 1">
    <g>
      <path class="cls-2" d="m56.05,28.04c0,15.48-12.54,28.03-28.03,28.03S0,43.52,0,28.04,12.55,0,28.02,0s28.03,12.57,28.03,28.04Z"/>
      <path class="cls-1" d="m39.17,12.92h-22.28c-2.65,0-4.02,1.38-4.02,4.05v22.23c0,2.56,1.41,3.97,3.89,3.97h22.41c2.59,0,4.01-1.41,4.01-4.01v-22.28c0-2.57-1.42-3.96-4.01-3.96Zm-2.46,3.41q3,0,3,3t-2.95,2.94-2.98-2.98,2.93-2.97Zm-8.67,5.84c3.16,0,5.88,2.73,5.82,5.88-.03,3.23-2.72,5.9-5.93,5.85-3.19-.08-5.88-2.76-5.8-5.93.08-3.17,2.74-5.8,5.9-5.8Zm11.68,15.75c-.03,1.41-.39,1.82-1.8,1.82h-19.8c-1.38,0-1.78-.41-1.78-1.82,0-3.63.01-7.34-.05-11.02,0-1.05.29-1.28,1.25-1.24,1.38.09,1.41.04,1.25,1.38-.54,4.69,2.7,9.22,7.31,10.12,4.75.91,9.51-1.93,10.82-6.49.39-1.42.51-2.94.21-4.35-.1-.52.03-.63.5-.63,2.09-.16,2.09-.2,2.09,1.97v10.25Z"/>
    </g>
  </g>
</svg>