<?xml version="1.0" encoding="UTF-8"?>
<svg id="Capa_2" data-name="Capa 2" xmlns="http://www.w3.org/2000/svg" viewBox="0 0 84.37 64.45">
  <defs>
    <style>
      .cls-1 {
        fill: #8a82c7;
      }

      .cls-2 {
        fill: none;
      }
    </style>
  </defs>
  <g id="Capa_1-2" data-name="Capa 1">
    <g>
      <polygon class="cls-2" points="10.75 51.14 5.03 56.04 79.39 56.04 73.87 51.14 72.1 51.14 76.78 55.19 7.59 55.19 12.44 51.14 10.75 51.14"/>
      <path class="cls-1" d="m4.43,64.45h75.51c2.45,0,4.43-1.98,4.43-4.43,0-1.78-1.06-3.31-2.58-4.02l-6.44-5.71c2.63-.29,4.68-2.48,4.68-5.19V5.25c0-2.9-2.34-5.25-5.24-5.25H9.58c-2.9,0-5.24,2.35-5.24,5.25v39.87c0,2.78,2.16,5.02,4.89,5.21l-6.63,5.68c-.77.35-1.42.91-1.87,1.6l-.06.05h.03c-.44.69-.7,1.5-.7,2.38,0,2.45,1.98,4.43,4.43,4.43Zm1.73-2.97c-.48,0-.87-.39-.87-.87s.39-.87.87-.87.88.39.88.87-.39.87-.88.87Zm3.47,0c-.48,0-.87-.39-.87-.87s.39-.87.87-.87.87.39.87.87-.39.87-.87.87Zm3.71,0c-.48,0-.87-.39-.87-.87s.39-.87.87-.87.87.39.87.87-.39.87-.87.87Zm31.98,0h-7.38c-.48,0-.87-.39-.87-.87s.39-.87.87-.87h7.38c.48,0,.88.39.88.87s-.4.87-.88.87Zm-3.14-58.38c.54,0,.96.43.96.96s-.43.97-.96.97-.95-.43-.95-.97.42-.96.95-.96ZM9.11,42.54V7.82h66.15v34.72H9.11Zm1.64,8.61h1.69l-4.85,4.05h69.18l-4.68-4.05h1.77l5.52,4.9H5.03l5.72-4.9Z"/>
    </g>
  </g>
</svg>