<?xml version="1.0" encoding="UTF-8"?>
<svg id="Capa_2" data-name="Capa 2" xmlns="http://www.w3.org/2000/svg" viewBox="0 0 56.06 56.06">
  <defs>
    <style>
      .cls-1 {
        fill: #fff;
        fill-rule: evenodd;
      }

      .cls-2 {
        fill: #a19ebb;
      }
    </style>
  </defs>
  <g id="Capa_1-2" data-name="Capa 1">
    <g>
      <path class="cls-2" d="m56.06,28.03c0,15.49-12.56,28.03-28.04,28.03S0,43.52,0,28.03,12.54,0,28.02,0s28.04,12.55,28.04,28.03Z"/>
      <g>
        <path class="cls-1" d="m44.64,24.02c-1.86-7.76-8.55-13.05-16.62-13.17-1.06.05-2.21.13-3.26.34-11.32,2.26-17.14,14.76-11.67,24.83.2.29.2.54.16.85-.8,2.6-1.53,5.28-2.23,7.92q-.12.46.32.34c2.76-.76,5.5-1.45,8.26-2.14.24-.07.41-.07.61.04,3.54,1.8,7.28,2.3,11.19,1.58,9.35-1.82,15.48-11.34,13.25-20.58Zm-14.22,17.84c-.82.16-1.58.22-1.97.17-3.01,0-5.43-.67-7.69-1.97-.32-.2-.56-.25-.87-.14-1.54.38-3.04.8-4.57,1.19-.31.09-.35.04-.27-.29.4-1.4.78-2.83,1.23-4.3.1-.39.07-.69-.18-1.02-3.09-5.02-2.95-11.22.5-15.87,3.6-4.81,8.54-6.81,14.41-5.55,5.79,1.21,9.5,4.99,10.82,10.75,1.87,7.89-3.45,15.74-11.42,17.03Z"/>
        <path class="cls-1" d="m32.48,36.02c-.6.05-1.2-.05-1.77-.24-3.9-1.14-6.85-3.53-9.22-6.78-.88-1.2-1.72-2.49-1.98-4.01-.36-1.76.2-3.34,1.53-4.56.44-.42,1.74-.61,2.27-.34.17.14.27.29.38.46.48,1.21,1,2.34,1.49,3.49.07.24.06.48-.07.72-.26.54-.66.97-1.04,1.41-.33.27-.33.6-.1.94,1.4,2.32,3.29,4,5.82,4.99.37.16.65.09.88-.2.44-.51.87-1.06,1.27-1.59.25-.34.58-.39.95-.24.84.38,1.66.77,2.46,1.14.22.12.38.2.57.26.84.43.84.48.75,1.38-.11,1.79-1.48,2.69-3.04,3.12-.42.09-.76.09-1.14.04Z"/>
      </g>
    </g>
  </g>
</svg>